<svg xmlns="http://www.w3.org/2000/svg" viewBox="0 0 216 64" width="216" height="64" role="img" aria-labelledby="title">
  <title id="title">kfleet logo lockup (dark background)</title>
  <g>
    <g fill="none" stroke="#8D97F0" stroke-width="4" stroke-linecap="round">
      <circle cx="32" cy="37" r="15"/>
      <path d="M32 37V22M32 37l13 7M32 37l-13 7"/>
    </g>
    <g fill="#8D97F0">
      <circle cx="32" cy="37" r="4.5"/>
      <circle cx="51" cy="37" r="3.5"/>
      <circle cx="13" cy="37" r="3.5"/>
      <circle cx="41.5" cy="53.5" r="3.5"/>
      <circle cx="22.5" cy="53.5" r="3.5"/>
    </g>
    <ellipse cx="32" cy="21" rx="23" ry="5" fill="#F0B455"/>
    <path d="M18 21c0-9 3-14 14-14s14 5 14 14z" fill="#F0B455"/>
    <path d="M18.6 18h26.8v4H18.6z" fill="#A2641F"/>
  </g>
  <g transform="translate(67,-2)" fill="none" stroke="#F5F3EF" stroke-width="5" stroke-linecap="round" stroke-linejoin="round">
    <path d="M12 18v32"/>
    <path d="M28 32 14 43"/>
    <path d="M19 38 29 50"/>
    <path d="M44 50V28c0-6 4-9 9-8"/>
    <path d="M37 33h14"/>
    <path d="M62 20v30"/>
    <path d="M72 40h20"/>
    <path d="M92 40a10 10 0 1 0-3.6 7.7"/>
    <path d="M98 40h20"/>
    <path d="M118 40a10 10 0 1 0-3.6 7.7"/>
    <path d="M130 24v18c0 6 4 9 9 8"/>
    <path d="M123 33h14"/>
  </g>
</svg>
